<svg version="1.1" xmlns="http://www.w3.org/2000/svg" viewBox="0 0 78.06968128233189 78.06968128233189" width="234.20904384699566" height="234.20904384699566"><!-- svg-source:excalidraw --><metadata></metadata><defs><style class="style-fonts">
      </style></defs><g stroke-linecap="round" transform="translate(10.691606983909537 10.589460952105128) rotate(0 28.539064945961343 28.539064945961286)"><path d="M38.53 1.92 C44.09 3.74, 49.6 9.04, 52.56 14.38 C55.53 19.72, 57.38 28.02, 56.3 33.94 C55.23 39.86, 50.72 45.96, 46.12 49.89 C41.52 53.81, 34.87 57.31, 28.69 57.5 C22.52 57.68, 13.88 55.04, 9.06 51 C4.24 46.96, 0.77 39.5, -0.21 33.27 C-1.18 27.04, 0.09 18.78, 3.22 13.61 C6.35 8.45, 12.01 4.01, 18.56 2.27 C25.11 0.53, 38 2.43, 42.52 3.19 C47.04 3.95, 46.06 6.25, 45.69 6.84 M32.88 0.18 C38.64 0.55, 45.57 5.1, 49.7 9.71 C53.83 14.32, 57.71 21.74, 57.64 27.85 C57.57 33.97, 53.1 41.45, 49.28 46.4 C45.45 51.35, 40.66 56.58, 34.67 57.56 C28.67 58.54, 18.69 55.34, 13.28 52.29 C7.87 49.24, 4.03 45.07, 2.21 39.24 C0.39 33.4, 0.11 23.14, 2.36 17.28 C4.61 11.41, 10.48 7.09, 15.7 4.05 C20.91 1, 30.61 -0.26, 33.66 -0.99 C36.7 -1.72, 33.9 -1.23, 33.95 -0.33" stroke="none" stroke-width="0" fill="#d0bfff"></path><path d="M28.44 -0.07 C34.17 -0.22, 42.73 3.39, 47.28 7.29 C51.84 11.19, 54.83 17.36, 55.78 23.36 C56.73 29.36, 55.92 37.83, 52.98 43.3 C50.04 48.78, 43.95 54.33, 38.16 56.2 C32.37 58.07, 23.98 56.69, 18.26 54.51 C12.53 52.33, 6.7 48.44, 3.82 43.1 C0.93 37.77, -0.3 28.62, 0.93 22.51 C2.15 16.4, 6.24 10.04, 11.19 6.44 C16.13 2.85, 27.08 1.9, 30.61 0.92 C34.14 -0.06, 32.44 0.35, 32.37 0.58 M36.4 2.25 C42.05 3.69, 47.5 8.86, 50.76 13.42 C54.01 17.97, 56.27 23.76, 55.94 29.58 C55.62 35.4, 52.82 43.94, 48.81 48.34 C44.8 52.73, 38.03 55.25, 31.88 55.97 C25.74 56.69, 17.07 56.12, 11.95 52.65 C6.83 49.18, 2.94 41.08, 1.17 35.12 C-0.6 29.17, -1.03 22.32, 1.33 16.92 C3.68 11.52, 9.56 5.14, 15.31 2.72 C21.06 0.3, 32.68 2.65, 35.84 2.42 C38.99 2.19, 34.18 1.12, 34.22 1.35" stroke="transparent" stroke-width="1" fill="none"></path></g><g stroke-linecap="round" transform="translate(10 10) rotate(0 29.034840641165943 29.034840641165943)"><path d="M31.28 0.33 C37.03 0.6, 43.8 4.3, 48.36 8.63 C52.93 12.97, 57.93 20.26, 58.69 26.34 C59.45 32.41, 56.59 40.11, 52.94 45.11 C49.29 50.11, 42.86 54.66, 36.79 56.32 C30.71 57.97, 22.11 57.51, 16.51 55.05 C10.91 52.6, 5.77 46.95, 3.16 41.59 C0.56 36.24, -0.5 29.09, 0.87 22.94 C2.24 16.79, 6.05 8.37, 11.37 4.68 C16.69 0.98, 28.77 1.42, 32.78 0.77 C36.79 0.11, 35.28 0.27, 35.44 0.74 M19 0.33 C24.74 -1.96, 34.3 -0.22, 40.51 2.08 C46.71 4.37, 53.4 8.45, 56.22 14.09 C59.04 19.73, 58.87 29.35, 57.41 35.9 C55.96 42.45, 52.26 49.52, 47.51 53.37 C42.76 57.22, 35.26 59.71, 28.93 58.99 C22.61 58.27, 14.41 53.56, 9.55 49.05 C4.68 44.53, 0.47 37.77, -0.24 31.9 C-0.95 26.03, 1.84 18.78, 5.28 13.83 C8.72 8.87, 17.78 3.93, 20.38 2.16 C22.99 0.39, 20.69 2.82, 20.91 3.23" stroke="#1e1e1e" stroke-width="4" fill="none"></path></g><g transform="translate(28.83436779255021 29.07024394043492) rotate(0 9.0005551252641 4.243272069780289)" stroke="none"><path fill="#1e1e1e" d="M -2.41,-1.05 Q -2.41,-1.05 -2.14,-1.76 -1.88,-2.47 -1.30,-3.50 -0.73,-4.54 0.23,-5.54 1.19,-6.55 2.15,-7.29 3.11,-8.04 4.49,-8.87 5.86,-9.70 7.24,-10.28 8.62,-10.86 9.72,-11.15 10.81,-11.44 12.37,-11.59 13.93,-11.74 15.34,-11.24 16.75,-10.75 17.62,-9.97 18.50,-9.19 19.09,-8.26 19.68,-7.33 20.16,-6.31 20.64,-5.30 21.01,-4.24 21.38,-3.17 21.51,-1.92 21.64,-0.67 21.62,0.62 21.60,1.92 21.30,3.61 21.01,5.30 20.34,6.65 19.68,8.01 18.62,9.23 17.56,10.45 16.67,11.21 15.79,11.96 14.81,12.59 13.83,13.22 12.91,13.77 11.99,14.32 11.08,12.88 10.17,11.45 11.08,12.32 12.00,13.20 12.56,13.46 13.13,13.73 13.57,14.16 14.02,14.59 14.31,15.14 14.60,15.69 14.69,16.30 14.79,16.92 14.68,17.53 14.58,18.14 14.28,18.69 13.99,19.24 13.53,19.66 13.08,20.08 12.51,20.34 11.95,20.60 11.33,20.66 10.71,20.72 10.11,20.59 9.50,20.45 8.97,20.12 8.44,19.80 8.04,19.32 7.64,18.85 7.42,18.27 7.19,17.69 7.16,17.07 7.13,16.45 7.30,15.85 7.48,15.25 7.83,14.74 8.18,14.23 8.68,13.86 9.17,13.48 9.77,13.29 10.36,13.10 10.98,13.10 11.60,13.11 12.19,13.31 12.77,13.51 13.26,13.89 13.76,14.27 14.10,14.79 14.45,15.30 14.61,15.90 14.77,16.50 14.73,17.12 14.69,17.74 14.46,18.32 14.22,18.89 13.82,19.37 13.41,19.84 12.88,20.15 12.34,20.47 11.74,20.60 11.13,20.73 10.51,20.65 9.89,20.58 9.89,20.58 9.89,20.58 7.88,19.19 5.87,17.80 5.01,16.22 4.15,14.65 4.29,13.54 4.43,12.43 5.16,11.58 5.89,10.74 6.53,9.70 7.17,8.67 8.45,7.81 9.72,6.96 10.82,6.24 11.91,5.52 12.84,4.51 13.76,3.49 14.01,2.45 14.26,1.41 14.28,0.24 14.31,-0.91 14.01,-2.12 13.71,-3.33 12.94,-4.12 12.16,-4.91 10.79,-4.61 9.42,-4.31 8.39,-3.82 7.35,-3.34 6.12,-2.60 4.89,-1.86 3.99,-1.08 3.09,-0.30 2.75,0.37 2.41,1.05 2.25,1.32 2.08,1.59 1.86,1.82 1.64,2.05 1.37,2.21 1.10,2.38 0.80,2.48 0.50,2.58 0.18,2.60 -0.12,2.62 -0.44,2.57 -0.75,2.52 -1.04,2.39 -1.33,2.26 -1.58,2.07 -1.83,1.88 -2.03,1.63 -2.23,1.38 -2.36,1.09 -2.50,0.81 -2.56,0.49 -2.62,0.18 -2.60,-0.12 -2.59,-0.44 -2.50,-0.74 -2.41,-1.05 -2.41,-1.05 L -2.41,-1.05 Z"></path></g><g transform="translate(39.26309790377388 56.7773337027063) rotate(0 0.03093966607366383 0.07219255417192016)" stroke="none"><path fill="#1e1e1e" d="M -2.23,1.01 Q -2.23,1.01 -2.40,0.72 -2.57,0.43 -2.43,-0.68 -2.29,-1.80 -1.46,-2.76 -0.63,-3.72 0.54,-3.74 1.72,-3.76 2.85,-3.04 3.98,-2.32 4.38,-1.10 4.79,0.11 4.15,1.51 3.52,2.90 1.94,3.69 0.35,4.49 -1.33,3.83 -3.02,3.18 -3.95,1.32 -4.88,-0.52 -4.07,-1.95 -3.26,-3.38 -2.17,-3.26 -1.07,-3.13 -0.68,-3.21 -0.29,-3.30 0.10,-3.28 0.50,-3.27 0.88,-3.16 1.27,-3.06 1.61,-2.86 1.96,-2.66 2.25,-2.39 2.54,-2.12 2.76,-1.78 2.98,-1.44 3.11,-1.07 3.24,-0.69 3.27,-0.29 3.31,0.10 3.25,0.49 3.19,0.89 3.03,1.26 2.88,1.63 2.64,1.95 2.41,2.27 2.10,2.52 1.79,2.78 1.43,2.95 1.07,3.13 0.55,3.22 0.02,3.31 -0.50,3.23 -1.03,3.15 -1.50,2.90 -1.98,2.65 -2.35,2.27 -2.72,1.88 -2.95,1.39 -3.18,0.91 -3.24,0.38 -3.31,-0.15 -3.20,-0.67 -3.08,-1.20 -2.81,-1.66 -2.54,-2.12 -2.13,-2.47 -1.73,-2.82 -1.23,-3.02 -0.74,-3.23 -0.20,-3.26 0.33,-3.29 0.84,-3.15 1.36,-3.02 1.81,-2.72 2.25,-2.42 2.58,-2.00 2.91,-1.57 3.09,-1.07 3.26,-0.56 3.27,-0.02 3.27,0.50 3.10,1.01 2.94,1.52 2.62,1.95 2.30,2.38 1.85,2.69 1.41,2.99 0.90,3.14 0.38,3.29 -0.14,3.26 -0.68,3.24 -1.18,3.04 -1.68,2.85 -2.09,2.51 -2.50,2.16 -2.78,1.71 -3.06,1.25 -3.18,0.73 -3.30,0.20 -3.25,-0.32 -3.20,-0.85 -2.98,-1.34 -2.75,-1.83 -2.39,-2.22 -2.02,-2.62 -1.55,-2.87 -1.08,-3.13 -1.08,-3.13 -1.07,-3.13 -0.68,-3.21 -0.29,-3.30 0.10,-3.28 0.50,-3.27 0.88,-3.16 1.27,-3.06 1.61,-2.86 1.96,-2.66 2.25,-2.39 2.54,-2.12 2.76,-1.78 2.98,-1.44 3.11,-1.07 3.24,-0.69 3.27,-0.29 3.31,0.10 3.25,0.49 3.19,0.89 3.03,1.26 2.88,1.63 2.64,1.95 2.41,2.27 2.10,2.52 1.79,2.78 1.43,2.95 1.07,3.13 0.69,2.65 0.31,2.17 0.70,1.10 1.10,0.03 0.21,-0.63 -0.67,-1.30 -0.68,-0.24 -0.69,0.82 0.45,0.87 1.60,0.92 1.81,-0.35 2.02,-1.63 2.13,-1.32 2.23,-1.01 2.32,-0.73 2.40,-0.45 2.42,-0.16 2.44,0.13 2.39,0.42 2.34,0.71 2.22,0.98 2.10,1.25 1.92,1.49 1.74,1.72 1.51,1.90 1.27,2.09 1.01,2.21 0.74,2.33 0.45,2.39 0.16,2.44 -0.13,2.43 -0.42,2.41 -0.71,2.32 -0.99,2.24 -1.24,2.09 -1.50,1.93 -1.71,1.73 -1.92,1.52 -2.07,1.27 -2.23,1.01 -2.23,1.01 L -2.23,1.01 Z"></path></g></svg>