<?xml version="1.0" encoding="UTF-8" standalone="no"?>
<!-- Created with Inkscape (http://www.inkscape.org/) -->

<svg
   version="1.1"
   id="svg48"
   width="944.69312"
   height="557.67731"
   viewBox="0 0 944.69315 557.67733"
   sodipodi:docname="StevenLaidlawLogo.svg"
   inkscape:version="1.2.1 (9c6d41e, 2022-07-14)"
   xmlns:inkscape="http://www.inkscape.org/namespaces/inkscape"
   xmlns:sodipodi="http://sodipodi.sourceforge.net/DTD/sodipodi-0.dtd"
   xmlns="http://www.w3.org/2000/svg"
   xmlns:svg="http://www.w3.org/2000/svg">
  <defs
     id="defs52" />
  <sodipodi:namedview
     id="namedview50"
     pagecolor="#ffffff"
     bordercolor="#000000"
     borderopacity="0.25"
     inkscape:showpageshadow="2"
     inkscape:pageopacity="0.0"
     inkscape:pagecheckerboard="0"
     inkscape:deskcolor="#d1d1d1"
     showgrid="false"
     inkscape:zoom="0.75219731"
     inkscape:cx="307.10027"
     inkscape:cy="313.08275"
     inkscape:window-width="3440"
     inkscape:window-height="1387"
     inkscape:window-x="0"
     inkscape:window-y="25"
     inkscape:window-maximized="1"
     inkscape:current-layer="g54" />
  <g
     inkscape:groupmode="layer"
     inkscape:label="Image"
     id="g54"
     transform="translate(-175.05147,-370.21828)">
    <path
       style="fill:#ffffff;stroke-width:1.33333"
       d="m 222.12907,924.8925 c -8.89952,-4.94635 -10.22704,-9.22176 -9.69565,-31.22586 0.29892,-12.3781 -0.0172,-18.99999 -0.90704,-18.99999 -0.75123,0 -4.71683,0.69213 -8.81245,1.53806 -9.78871,2.02183 -15.61704,0.77238 -21.71288,-4.6547 -4.20472,-3.74344 -5.10395,-5.50538 -5.65984,-11.08991 -0.64379,-6.46743 -0.5448,-6.69476 3.82164,-8.77696 3.93909,-1.87843 27.96521,-8.73309 33.41234,-9.53256 2.65227,-0.38928 3.8647,-1.69472 4.18966,-4.51109 0.14636,-1.2684 1.78146,-14.30618 3.63358,-28.97284 1.85212,-14.66667 4.3418,-37.46667 5.53262,-50.66667 1.8552,-20.56461 6.17344,-56.35701 8.12356,-67.33333 0.32572,-1.83333 0.92197,-6.03333 1.325,-9.33333 3.69032,-30.21618 7.85724,-48.83108 11.34905,-50.69986 4.03971,-2.16198 13.74563,2.05446 21.32393,9.26352 4.68348,4.4553 5.19006,5.50124 4.0793,8.42276 -0.69755,1.83468 -1.58744,6.56328 -1.97755,10.50802 -0.39011,3.94472 -1.01437,8.37222 -1.38725,9.83889 -0.71583,2.81556 -2.27594,20.34765 -2.31364,26 -0.012,1.83333 -0.5796,4.00728 -1.26084,4.831 -0.68124,0.82372 -0.87358,2.44897 -0.4274,3.61168 0.44617,1.16271 0.11146,4.2344 -0.74387,6.82599 -0.85531,2.59158 -1.83847,7.86633 -2.18481,11.72165 -0.34635,3.85532 -0.72983,8.05968 -0.85218,9.34301 -0.1224,1.28334 -0.67505,2.33334 -1.22822,2.33334 -0.55318,0 -0.66203,0.89577 -0.24191,1.99061 0.42013,1.09484 -0.008,7.24484 -0.94996,13.66667 -0.94261,6.42182 -1.56356,13.01599 -1.37989,14.65371 0.18366,1.63771 -0.0963,3.6737 -0.62199,4.5244 -0.52577,0.85071 -1.13468,4.91076 -1.35312,9.02234 -0.35855,6.74842 -1.33032,14.14226 -1.85872,14.14226 -0.1128,0 -0.41719,3.6 -0.67651,8 -1.01568,17.23298 -2.03678,29.46694 -2.69872,32.33334 -0.78056,3.38005 -0.47901,3.46805 6.02468,1.75832 2.56667,-0.67474 7.06667,-1.54447 10,-1.93272 7.71062,-1.02058 14.36886,-2.27716 16.66667,-3.14544 1.1,-0.41567 2.6,-0.84203 3.33333,-0.94746 0.73334,-0.10546 4.0798,-0.66604 7.4366,-1.24576 3.35679,-0.57973 7.85679,-1.27113 10,-1.53645 2.1432,-0.26531 5.69674,-0.77377 7.89674,-1.12992 2.2,-0.35615 7.40514,-1.04017 11.56698,-1.52007 7.4961,-0.86436 7.62379,-0.82016 13.63214,4.71814 7.80277,7.19234 9.12262,12.71729 4.62098,19.3436 -3.85406,5.67308 -5.70841,6.384 -21.15344,8.10981 -8.57226,0.95787 -12.66666,1.55561 -12.66666,1.84925 0,0.1156 -1.5,0.45752 -3.33334,0.75983 -9.66732,1.59404 -19.65864,3.30989 -22.16437,3.80639 -1.55707,0.30853 -4.85707,0.89918 -7.33333,1.31257 -2.47627,0.41339 -5.7023,1.00355 -7.16896,1.31147 -1.46667,0.30792 -6.56667,1.32833 -11.33334,2.2676 -4.76666,0.93925 -9.15286,2.1144 -9.74712,2.61141 -0.59424,0.49701 -1.35696,7.13745 -1.69492,14.75655 -1.06318,23.96889 -1.66978,32.07582 -2.45916,32.86518 -0.421,0.42101 -0.76546,2.12192 -0.76546,3.77981 0,3.8136 -5.93519,8.57486 -10.51315,8.43374 -1.91777,-0.0591 -5.82877,-1.40912 -8.69111,-3 z M 463.9797,855.48462 c -3.34663,-1.44823 -5.03334,-3.06271 -8.81294,-8.4356 -2.12682,-3.0234 -4.77509,-13.84357 -10.49938,-42.89785 -1.78964,-9.08351 -3.42194,-16.66891 -3.62731,-16.85646 -0.20537,-0.18753 -6.07341,1.46275 -13.04008,3.6673 -6.96667,2.20453 -13.70444,4.12772 -14.97284,4.27373 -1.26839,0.14601 -2.71839,0.67769 -3.22223,1.18152 -0.50382,0.50383 -2.28064,0.91605 -3.94846,0.91605 -3.32891,0 -4.429,1.19114 -5.2539,5.68867 -0.3004,1.63789 -1.19358,5.978 -1.98484,9.64467 -3.16425,14.66309 -3.92972,18.96685 -4.62438,26 -1.01698,10.2964 -1.55002,11.47502 -6.51442,14.40409 -3.08657,1.82112 -5.06508,2.22709 -6.61809,1.35799 -1.21841,-0.68186 -2.78996,-0.88458 -3.49233,-0.45048 -0.70238,0.43409 -3.58983,-0.39064 -6.41656,-1.83274 -8.3094,-4.23913 -9.56755,-12.14593 -5.64547,-35.47886 1.71985,-10.23158 1.76032,-9.85042 -0.97315,-9.16679 -3.83246,0.95849 -12.00862,-7.44784 -13.43998,-13.81835 -1.74072,-7.74741 0.26949,-9.96116 13.10176,-14.4282 l 10.73796,-3.738 2.06445,-7.42433 c 8.00811,-28.7993 26.03491,-73.42433 29.6606,-73.42433 0.6002,0 1.92435,-1.55663 2.94256,-3.45917 2.31932,-4.33368 13.94912,-10.41546 19.26599,-10.0751 14.90488,0.95416 25.83852,14.25756 30.07426,36.59255 0.67604,3.56471 1.52803,6.96488 1.89331,7.55592 0.36529,0.59104 1.00443,3.39464 1.42031,6.23021 0.41588,2.83558 1.65304,7.94863 2.74924,11.36235 1.9058,5.93485 2.18008,6.1776 6.26132,5.54135 2.34753,-0.36598 4.49444,-0.88522 4.77092,-1.15388 1.00413,-0.97578 9.96213,3.50822 12.82449,6.41939 2.52888,2.57202 4.69597,7.61818 5.29073,12.31971 0.46487,3.67476 -4.08103,7.37736 -12.3896,10.09125 -4.89224,1.598 -9.29921,3.28119 -9.79325,3.74043 -0.71744,0.66689 2.09861,16.26164 4.84577,26.83499 1.83797,7.07405 5.09985,21.29957 5.656,24.66666 0.36339,2.2 1.16512,4.94304 1.78164,6.09566 1.43484,2.6825 1.30965,12.98348 -0.20629,16.97446 -1.05043,2.76543 -1.92971,3.04258 -8.85947,2.7925 -4.23132,-0.1527 -9.18417,-0.92278 -11.00634,-1.71131 z m -44.71304,-94.40455 c 0.69666,-0.59405 2.44505,-1.08009 3.8853,-1.08009 1.44026,0 4.92026,-1.01547 7.73334,-2.2566 6.16105,-2.71824 6.14788,-2.46196 1.25398,-24.41006 l -3.71625,-16.66667 -3.99144,8.69905 c -2.19529,4.78447 -4.43675,10.48447 -4.98101,12.66667 -0.54426,2.18219 -1.7799,5.76761 -2.74587,7.96761 -1.74137,3.96599 -6.03805,17.16992 -6.03805,18.55528 0,0.83804 6.73192,-1.88227 8.6,-3.47519 z m 100.60002,86.78718 c -2.49335,-1.31383 -5.86641,-3.00014 -7.49569,-3.74736 -5.09747,-2.33782 -7.16984,-9.73003 -6.35342,-22.66278 0.3978,-6.30142 0.98123,-12.95713 1.2965,-14.79046 0.31528,-1.83334 0.91294,-7.23334 1.32814,-12 0.41522,-4.76667 1.0316,-11.36667 1.36975,-14.66667 0.33816,-3.3 0.92159,-9.3 1.29651,-13.33333 0.37492,-4.03334 0.96121,-10.33334 1.30285,-14 3.107,-33.34469 6.04055,-47.33235 10.53963,-50.25464 4.50986,-2.92928 19.80792,3.97728 22.10244,9.97852 1.32924,3.47657 0.63601,23.62448 -1.36283,39.60945 -2.00667,16.04749 -2.29904,19.10327 -3.18932,33.33333 -0.43587,6.96667 -1.08112,16.86667 -1.43391,22 -0.35278,5.13334 -0.88965,14.43334 -1.19304,20.66667 -0.30338,6.23333 -1.1317,12.85799 -1.84072,14.72147 -2.70281,7.10368 -8.9336,9.06265 -16.36689,5.1458 z m 55.46664,-9.0282 c -9.04887,-5.62003 -14.28532,-15.05007 -14.20377,-25.57875 0.0265,-3.42225 0.96364,-11.25584 2.08252,-17.40797 1.11888,-6.15212 2.38413,-14.78568 2.81169,-19.18568 0.42755,-4.4 1.04399,-9.5 1.36987,-11.33334 0.32588,-1.83333 0.85682,-5.43333 1.17988,-8 1.2535,-9.95883 2.31045,-17.66794 2.7129,-19.78726 1.37946,-7.26432 4.73191,-28.46148 5.3055,-33.54607 2.17188,-19.25286 5.69189,-27.60329 13.09576,-31.06662 19.13077,-8.94887 38.55914,-8.07459 56.6905,2.5511 8.58301,5.02998 20.89723,18.10206 25.05168,26.59347 3.11503,6.36688 3.47592,8.34472 2.71068,14.85569 -0.48552,4.13103 -2.28516,10.26092 -3.99921,13.62199 -1.71406,3.36108 -4.75976,9.41104 -6.76824,13.44437 -6.32756,12.70665 -9.60662,18.42399 -11.85779,20.67516 -1.20008,1.20009 -2.18197,2.94613 -2.18197,3.88009 0,0.93396 -1.2,2.7841 -2.66667,4.11142 -1.46667,1.32732 -2.66667,3.11132 -2.66667,3.96444 0,0.85313 -2.09953,3.91014 -4.66562,6.79336 -2.5661,2.88321 -4.6661,5.64934 -4.66667,6.14696 -5.7e-4,0.49762 -0.75104,1.69941 -1.66771,2.67065 -0.91666,0.97124 -4.56909,5.36409 -8.11649,9.76191 -8.99747,11.1544 -31.31796,34.18962 -35.8481,36.99601 -4.82828,2.99109 -8.70019,2.94561 -13.70207,-0.16093 z m 26.66667,-58.31099 c 3.66666,-4.82933 8.24422,-10.67379 10.17234,-12.98768 10.96259,-13.15592 35.89543,-59.51656 36.27523,-67.45089 0.20706,-4.32595 -0.11027,-4.67648 -5.78091,-6.38661 -10.88609,-3.28296 -34.1398,0.20212 -34.27072,5.13622 -0.0267,1.00515 -1.33822,10.82755 -2.91457,21.82755 -2.88621,20.14051 -3.13309,21.96531 -4.78012,35.33333 -0.49693,4.03333 -1.45097,9.84065 -2.12011,12.90515 -0.66913,3.0645 -1.55972,8.4302 -1.97908,11.92377 -0.41937,3.49359 -1.0618,6.83627 -1.42764,7.42819 -0.36582,0.59192 -0.47973,1.07068 -0.25312,1.0639 0.22662,-0.007 3.41203,-3.9636 7.0787,-8.79293 z m 93.94023,54.90247 c -5.10973,-1.23288 -6.48245,-2.35847 -9.93461,-8.14602 -4.95673,-8.31 -5.03484,-12.4122 -1.25588,-65.9512 0.71612,-10.14578 0.90751,-12.14795 3.31361,-34.66666 2.12648,-19.90165 2.40698,-22.74017 3.22803,-32.66667 0.4246,-5.13333 1.02916,-11.13333 1.34348,-13.33333 0.31432,-2.2 0.92043,-9.4 1.34691,-16 1.11956,-17.32569 3.30116,-29.75912 5.63029,-32.08825 2.58283,-2.58283 11.01315,-1.471 13.43809,1.77228 0.94426,1.2629 3.62762,3.20064 5.96302,4.30608 6.15498,2.91341 7.85222,7.09609 7.03749,17.34322 -0.37899,4.76667 -1.02385,13.7885 -1.43304,20.0485 -0.40919,6.26001 -1.05259,14.06001 -1.4298,17.33333 -0.3772,3.27333 -0.69524,6.85151 -0.70676,7.95151 -0.0203,1.94074 -2.12277,19.23817 -3.32231,27.33333 -0.326,2.2 -0.66565,8.8 -0.75478,14.66667 -0.0892,5.86666 -0.59578,10.96666 -1.12586,11.33333 -0.53008,0.36666 -1.32753,10.75488 -1.77209,23.08492 -0.75301,20.88449 -0.64973,22.3705 1.50949,21.7203 25.66792,-7.72925 32.62764,-8.81314 38.07213,-5.92925 5.41883,2.87028 12.81351,13.53701 10.41302,15.02061 -0.63594,0.39303 -1.50807,2.47376 -1.9381,4.62387 -0.59986,2.99933 -1.72264,4.11591 -4.82358,4.797 -2.22296,0.48824 -4.38403,1.44155 -4.80239,2.11847 -0.41836,0.6769 -2.52524,1.23074 -4.68196,1.23074 -2.15672,0 -3.9213,0.53191 -3.9213,1.182 0,0.65011 -1.95,1.54671 -4.33334,1.99246 -2.38333,0.44574 -4.93333,1.02322 -5.66666,1.28328 -5.18654,1.83925 -6.94208,2.55062 -8.98191,3.6396 -1.27339,0.6798 -3.40339,1.236 -4.73333,1.236 -1.32995,0 -3.05968,0.64158 -3.84383,1.42573 -0.78416,0.78416 -2.25416,1.59353 -3.26667,1.79861 -1.01252,0.20508 -2.74093,0.71484 -3.84093,1.1328 -4.32727,1.64418 -9.05644,1.7748 -14.72643,0.40674 z m 97.25027,-30.0097 c -2.76696,-0.54029 -6.58916,-2.7597 -9,-5.22597 -3.98895,-4.08064 -4.19051,-4.79765 -4.19051,-14.90752 v -10.62069 h -4.22856 c -3.26584,0 -5.52668,-1.3548 -9.93033,-5.95071 -5.39424,-5.62975 -8.83446,-14.16707 -6.60654,-16.39499 1.033,-1.033 9.35078,-4.46162 23.31516,-9.61062 l 9.88307,-3.64411 6.25905,-17.86645 c 7.07064,-20.18315 8.27096,-23.05076 17.25368,-41.21961 7.41624,-15.00047 17.26094,-30.71915 23.16084,-36.98018 6.73476,-7.14697 15.99586,-5.48769 27.91142,5.0008 9.52041,8.3802 16.14562,24.21292 21.20134,50.66624 3.06481,16.03624 3.12476,16.17951 6.43724,15.3838 7.69096,-1.84746 21.00195,-2.32753 23.75049,-0.85654 1.56355,0.83678 4.41864,4.21038 6.34467,7.49689 1.92601,3.28652 3.70511,5.97548 3.95353,5.97548 0.47587,0 0.0351,-3.05899 -2.01745,-14 -0.68785,-3.66667 -1.60792,-11.46667 -2.04457,-17.33333 -0.96343,-12.94398 -1.91272,-22.86394 -2.61567,-27.33334 -1.90507,-12.11246 -3.40989,-29.74456 -2.72321,-31.90809 1.69374,-5.33653 12.62705,-4.91008 20.15502,0.78616 2.26923,1.71707 4.74643,3.12193 5.50491,3.12193 2.55739,0 4.29703,7.23422 7.05391,29.33334 2.40198,19.2543 3.3164,25.6594 5.90086,41.33333 0.30231,1.83333 0.59423,4.41875 0.64872,5.74536 0.14114,3.43584 2.41067,1.57285 3.36307,-2.76065 0.44137,-2.00826 3.8446,-11.45138 7.56275,-20.98471 3.71814,-9.53333 7.57353,-19.88017 8.56754,-22.99299 0.994,-3.1128 2.68775,-7.6128 3.76388,-10 5.00511,-11.10292 7.50851,-17.49652 7.50851,-19.1765 0,-3.0959 5.13504,-7.16552 9,-7.1327 5.33359,0.0453 16.44339,6.5996 19.89199,11.73539 2.9907,4.45385 6.2954,14.21416 7.7536,22.90013 0.4309,2.56667 1.0318,5.56667 1.3354,6.66667 0.3036,1.1 0.8942,4.7 1.3124,8 0.4182,3.3 1.1369,8.4 1.5971,11.33333 0.4602,2.93334 0.9958,6.53334 1.1902,8 0.7049,5.3168 2.072,11.93048 2.5689,12.42742 0.2797,0.27964 1.1364,-1.80214 1.9038,-4.62616 4.0553,-14.92348 16.8616,-51.83139 34.1665,-98.46792 4.898,-13.2 10.8364,-29.44008 13.1964,-36.08907 2.3601,-6.64898 4.5882,-12.64898 4.9513,-13.33333 0.3631,-0.68435 1.4596,-3.7856 2.4367,-6.89167 0.9771,-3.10606 2.8334,-6.60389 4.1252,-7.77293 2.8145,-2.54709 5.6384,-1.38397 13.9038,5.72677 11.8521,10.1963 11.6005,9.85147 10.6978,14.66362 -1.2074,6.43596 -7.144,23.89088 -10.7803,31.69661 -7.4323,15.95433 -22.1867,57.28633 -20.9066,58.56642 0.4218,0.4218 0.1449,0.76691 -0.6154,0.76691 -1.3047,0 -4.7785,9.96991 -4.3615,12.5176 0.1066,0.65133 -0.4409,1.57651 -1.2166,2.05592 -0.7757,0.47941 -1.7821,3.24651 -2.2365,6.14908 -0.4544,2.90257 -1.371,5.4774 -2.0368,5.72184 -0.6659,0.24445 -1.2107,1.59445 -1.2107,3 0,1.40556 -0.6405,2.55556 -1.4232,2.55556 -0.7956,0 -1.0657,1.12648 -0.6124,2.55445 0.4459,1.40496 0.2385,2.9081 -0.4608,3.34032 -0.6994,0.43223 -1.676,3.17958 -2.1703,6.10523 -0.4943,2.92565 -1.4465,5.65792 -2.116,6.07171 -0.6695,0.41378 -1.2173,1.80626 -1.2173,3.09441 0,1.28815 -2.1455,8.90273 -4.7678,16.92131 -2.6222,8.01858 -5.0032,15.70938 -5.291,17.09068 -0.2879,1.38129 -1.5059,5.28129 -2.7067,8.66666 -2.1456,6.04911 -2.5628,7.12855 -6.1149,15.82189 -0.9738,2.38334 -2.4507,4.33334 -3.2819,4.33334 -0.8311,0 -2.2771,0.92289 -3.2133,2.05088 -2.184,2.63154 -12.1273,1.40678 -18.1622,-2.2371 -5.8756,-3.54769 -13.5583,-12.37017 -14.6122,-16.78017 -0.4864,-2.03515 -1.3366,-4.30028 -1.8894,-5.03361 -1.7239,-2.28713 -4.1774,-16.37323 -6.643,-38.13901 -0.7721,-6.81538 -1.62326,-12.61107 -1.89152,-12.87934 -0.26826,-0.26825 -1.49172,2.70114 -2.7188,6.59864 -1.22708,3.89751 -2.73958,8.28638 -3.36113,9.75304 -0.62153,1.46667 -1.43977,4.46667 -1.81829,6.66667 -0.37852,2.2 -1.73754,6.4 -3.02002,9.33333 -1.28249,2.93334 -2.18161,6.14211 -1.99805,7.13062 0.18356,0.9885 -0.66484,2.9007 -1.88532,4.24932 -1.22048,1.34861 -1.83996,3.06542 -1.3766,3.81514 0.46335,0.74971 0.26592,2.43752 -0.43872,3.75068 -1.22185,2.277 -3.05911,7.35539 -2.91165,8.04809 0.46778,2.19752 -6.53508,16.70958 -9.65407,20.00615 -3.50001,3.69929 -5.02191,4.33333 -10.40136,4.33333 -5.07159,0 -7.42468,-0.85672 -12.05656,-4.38956 -3.16529,-2.41425 -7.06981,-6.34046 -8.67669,-8.72492 -3.05512,-4.5335 -6.31807,-17.07482 -7.68875,-29.55218 -0.44308,-4.03333 -1.29233,-9.13333 -1.88723,-11.33333 l -1.08164,-4 -1.67793,5.04722 c -1.9288,5.80183 -5.87993,8.86371 -12.28916,9.52336 -5.37264,0.55298 -14.18963,2.0625 -17.65092,3.02196 -2.57024,0.71247 -2.58836,2.3543 -0.20312,18.40745 1.66585,11.21155 1.84795,29.02383 0.32465,31.75722 -1.98946,3.56989 -3.80142,4.95557 -5.28282,4.04002 -0.61714,-0.38141 -1.86631,-0.0759 -2.77595,0.67912 -2.86617,2.37871 -10.74684,-0.4352 -15.80498,-5.6434 -5.16916,-5.32252 -5.51328,-6.75149 -7.20815,-29.93238 l -0.90903,-12.43276 -3.4869,0.91437 c -1.9178,0.50292 -7.08691,1.70271 -11.48691,2.6662 -4.4,0.96349 -14,3.74676 -21.33333,6.18504 -11.75099,3.90712 -13.38806,4.82883 -13.79443,7.76657 -0.2536,1.83334 -0.93072,3.93334 -1.50472,4.66667 -0.574,0.73333 -1.4802,5.53207 -2.01376,10.66385 -1.1406,10.96998 -4.43175,18.18426 -9.30955,20.40674 -1.92666,0.87784 -3.62478,1.52708 -3.77361,1.44274 -0.14883,-0.0844 -2.43487,-0.57594 -5.08009,-1.09248 z m 44.81373,-78.7751 c 5.131,-1.47817 11.12909,-2.99971 13.32909,-3.38119 9.98116,-1.73073 9.76444,-1.0452 6.51152,-20.59789 -1.15902,-6.96667 -2.49826,-15.23617 -2.97608,-18.37668 -0.47782,-3.14052 -1.377,-5.84052 -1.99817,-6 -1.6796,-0.43125 -11.22761,16.81645 -18.29217,33.04335 -1.3104,3.00993 -6.57672,17.1543 -6.57776,17.66666 -10e-4,0.52087 0.1332,0.48928 10.00357,-2.35425 z m -310.6709,-50.14525 c -2.2,-1.2218 -4.44081,-2.88424 -4.97959,-3.69431 -2.60344,-3.9144 0.22846,-25.69684 3.4998,-26.91988 7.41815,-2.77339 22.92746,1.43227 25.92303,7.02953 1.74869,3.26748 -1.7224,18.85202 -4.92576,22.11562 -3.3704,3.43378 -14.47475,4.2696 -19.51748,1.46904 z m -80.66666,-25.91883 c 0,-0.77315 -0.48494,-1.10601 -1.07763,-0.73971 -2.26819,1.40182 -8.20741,-5.29109 -9.32524,-10.50862 -1.14295,-5.33475 -1.00119,-26.18279 0.25717,-37.82143 0.36742,-3.39821 1.07371,-23.87857 1.56954,-45.5119 0.49582,-21.63334 1.21353,-39.86395 1.5949,-40.51247 0.79835,-1.35763 -3.70269,-0.58585 -14.87845,2.55115 -10.19517,2.86176 -18.28063,1.76064 -22.9406,-3.12418 -2.8268,-2.96317 -9.86636,-15.82884 -9.86636,-18.03197 0,-0.34192 1.65,-1.22585 3.66667,-1.96431 22.71188,-8.31654 33.66666,-11.97921 33.66666,-11.25625 0,0.47925 0.72,0.15136 1.6,-0.72864 0.88,-0.88 2.53,-1.60919 3.66667,-1.62041 4.24993,-0.042 5.45379,-2.29082 6.10557,-11.40544 5.98192,-83.65043 7.84931,-99.03707 12.0645,-99.40748 1.04313,-0.0917 2.6466,-0.21652 3.56326,-0.27744 2.4246,-0.16116 10.33334,4.28688 10.33334,5.81168 0,0.71451 0.45,1.22804 1,1.1412 2.56956,-0.40572 4.23798,0.42617 7.60253,3.79073 4.05485,4.05486 4.03264,2.82844 0.77951,43.03383 -2.16566,26.76543 -2.24736,47.40492 -0.18588,46.95633 2.52822,-0.55014 22.68374,-5.54805 28.16661,-6.98438 5.37812,-1.4089 15.13361,-0.53234 19.85065,1.78365 4.93825,2.4246 8.27765,7.88416 8.98717,14.69308 0.89639,8.60212 -2.9615,12.16621 -14.47129,13.36922 -10.78008,1.12675 -43.47877,10.35916 -44.32476,12.51502 -0.77468,1.97412 -2.53653,38.69472 -2.65489,55.33333 -0.0456,6.41644 -0.41203,11.66644 -0.8142,11.66667 -0.40216,2.2e-4 -0.76384,4.35041 -0.80372,9.66708 -0.12293,16.38114 -1.87908,54.74478 -2.72911,59.61605 -0.44301,2.53882 -2.03629,5.6127 -3.54064,6.83084 -3.1075,2.5163 -16.86198,3.44194 -16.86198,1.13477 z m -128.66667,-5.16936 c -9.0405,-2.47721 -17.75842,-9.23379 -15.8657,-12.29627 0.37936,-0.61382 0.0189,-1.11604 -0.80096,-1.11604 -0.8199,0 -1.15102,-0.54965 -0.73582,-1.22144 0.41519,-0.6718 0.13532,-2.85105 -0.62193,-4.84278 -3.13017,-8.23296 0.76655,-10.13083 14.67599,-7.14779 4.86696,1.04377 7.27396,1.04704 8.52164,0.012 0.95634,-0.79371 2.09369,-1.08821 2.52742,-0.65448 0.43374,0.43373 1.57854,0.28772 2.54399,-0.32448 0.96545,-0.6122 2.05537,-1.1506 2.42204,-1.19641 3.26312,-0.40784 15.26204,-8.27307 20.45072,-13.40533 9.31301,-9.21182 18.53788,-24.39972 20.31433,-33.44574 0.67379,-3.43105 0.0796,-4.16598 -6.55375,-8.10645 -4.01208,-2.38333 -7.68385,-4.33333 -8.15948,-4.33333 -0.47564,0 -3.38188,-1.12304 -6.4583,-2.49564 -3.07644,-1.37304 -11.59352,-5.09146 -18.92685,-8.26358 -16.7178,-7.23148 -26.28232,-13.23972 -34.18363,-21.47344 -7.97351,-8.30894 -10.87049,-14.48544 -11.55637,-24.63866 -0.48594,-7.1934 -0.0107,-9.32903 3.85818,-17.33334 6.0403,-12.49714 20.37971,-26.58593 33.81918,-33.22807 12.42538,-6.14096 24.98353,-7.8871 32.50502,-4.51963 6.31919,2.82919 11.90977,10.1822 13.01988,17.12439 0.73316,4.58497 0.47469,5.59201 -1.62873,6.34568 -1.37511,0.4927 -3.34207,1.55268 -4.371,2.3555 -1.02895,0.80284 -4.02895,1.49626 -6.66667,1.54094 -10.73732,0.18189 -28.21818,11.80957 -35.8176,23.82465 -2.29294,3.62528 -3.36476,7.30857 -3.47934,11.9568 -0.16072,6.52036 -0.009,6.80365 5.16774,9.64886 2.93334,1.61222 8.3261,3.97728 11.98392,5.25572 3.65782,1.27846 8.45781,3.42656 10.66667,4.7736 2.20884,1.34703 4.736,2.4514 5.6159,2.45414 0.87991,0.003 4.17991,1.65498 7.33334,3.67165 3.15342,2.01667 6.9335,4.42532 8.40017,5.35256 27.96489,17.67968 39.08219,40.42633 29.06413,59.467 -1.9814,3.76591 -4.47438,7.89711 -5.53998,9.18044 -1.0656,1.28333 -1.55034,2.33333 -1.07719,2.33333 1.19049,0 -2.39975,4.39332 -11.65831,14.26605 -4.3329,4.62034 -8.6329,8.40062 -9.55554,8.40062 -0.92266,0 -1.87755,0.46978 -2.122,1.04397 -0.74563,1.75143 -10.75574,7.15665 -17.11111,9.23961 -7.08373,2.32168 -24.31573,3.35295 -30,1.79539 z m 263.12214,-11.38956 c -0.25052,-0.24408 -4.76309,-0.76449 -10.02794,-1.15651 -10.90622,-0.81202 -19.79251,-2.9369 -23.68543,-5.66361 -1.46784,-1.02811 -3.46061,-1.86929 -4.42839,-1.86929 -1.96742,0 -3.13494,-0.8603 -12.36376,-9.11032 -6.5754,-5.87801 -10.23754,-11.58895 -13.1818,-20.55635 -1.01496,-3.09133 -2.49286,-5.01608 -3.87156,-5.04213 -2.16558,-0.0409 -9.56326,-5.68628 -9.56326,-7.29799 0,-0.44074 -1.5,-3.0088 -3.33334,-5.7068 -3.77894,-5.56121 -4.09237,-6.95308 -1.56574,-6.95308 0.97216,0 3.21733,-1.5432 4.98926,-3.42933 1.77194,-1.88613 5.49479,-4.70689 8.27302,-6.26833 4.59025,-2.57988 5.36953,-3.87936 8.53778,-14.23734 4.40444,-14.3994 8.76499,-23.9296 15.57076,-34.03064 6.23466,-9.25338 20.07347,-23.36769 22.91159,-23.36769 1.07249,0 1.95,-0.48044 1.95,-1.06764 0,-0.95065 10.99724,-6.92392 12.68745,-6.89132 0.3706,0.007 2.31754,-0.82821 4.32652,-1.85636 4.6671,-2.38849 13.37838,-3.83173 23.12802,-3.83173 8.77285,0 13.89622,2.82473 18.43067,10.16162 3.12422,5.0551 3.6168,11.78172 1.02054,13.93643 -0.95707,0.79429 -6.14222,2.12719 -11.52255,2.96197 -5.38032,0.83479 -12.39726,2.97766 -15.5932,4.76192 -3.19593,1.78427 -5.81078,2.90944 -5.81078,2.50038 0,-1.52518 -7.50807,3.21257 -12.39486,7.8214 -2.78294,2.62466 -5.79041,5.23664 -6.68324,5.80438 -2.62396,1.66856 -12.98328,18.32722 -11.67413,18.77298 0.65801,0.22405 8.63469,-2.28894 17.72596,-5.58439 28.61309,-10.37187 41.65673,-10.92329 48.76245,-2.06145 4.03384,5.03077 4.94143,13.00877 1.89203,16.63146 -2.66195,3.16242 -12.21983,7.27368 -16.90984,7.27368 -1.77521,0 -3.59848,0.6 -4.05171,1.33334 -0.45322,0.73333 -1.74796,1.33333 -2.87718,1.33333 -1.12923,0 -3.94382,0.83168 -6.25464,1.84819 -2.31083,1.0165 -8.10151,3.21161 -12.86818,4.878 -4.76666,1.6664 -10.16666,3.78614 -12,4.71056 -1.83333,0.9244 -6.18333,2.40728 -9.66666,3.29528 -3.48334,0.888 -6.33334,2.06156 -6.33334,2.60792 0,0.54636 -1.82265,1.35792 -4.05034,1.80345 l -4.05034,0.81007 0.38367,12.3566 0.38368,12.3566 6.66667,0.43042 c 11.20702,0.72356 36.16228,-5.33233 52.48496,-12.73654 13.30931,-6.0373 19.66851,-5.7377 27.68919,1.30456 6.3076,5.53814 9.34007,12.32832 6.89242,15.43317 -3.14876,3.99421 -6.98316,6.6827 -13.73324,9.62905 -3.66667,1.60048 -7.70852,3.44157 -8.98191,4.09131 -1.27339,0.64974 -3.44992,1.18136 -4.83674,1.18136 -1.38682,0 -3.19259,0.80862 -4.01283,1.79694 -0.82023,0.98832 -3.33529,1.84938 -5.58903,1.91346 -2.25372,0.064 -4.80609,0.68434 -5.67192,1.37837 -0.86584,0.69404 -3.67424,1.56595 -6.2409,1.93759 -2.56667,0.37164 -5.96171,0.9977 -7.54452,1.39125 -1.58283,0.39356 -3.08283,0.51587 -3.33334,0.2718 z m 104.367,-25.65084 c -8.09792,-3.84878 -13.91479,-11.26069 -16.94661,-21.59353 -2.06634,-7.04236 -10.96452,-48.79019 -14.09112,-66.11171 -0.79423,-4.4 -3.40774,-18.2 -5.8078,-30.66666 -2.40007,-12.46667 -4.69428,-24.52948 -5.09827,-26.80624 -1.50301,-8.47069 5.59785,-12.37699 14.27373,-7.85221 2.1005,1.09548 4.56958,1.99178 5.48686,1.99178 3.86161,0 8.63289,5.80486 11.7861,14.33926 4.97058,13.45321 5.88978,17.16603 8.877,35.85561 0.60319,3.77384 1.43335,7.97384 1.8448,9.33333 0.41147,1.35949 1.01108,3.9718 1.33248,5.80513 4.07834,23.26364 6.5702,35.51842 7.39614,36.37356 0.55257,0.57214 2.69661,-3.32786 4.76454,-8.66666 3.56299,-9.19862 18.04463,-43.99178 20.68904,-49.7069 3.45848,-7.47448 12.78188,-30.89182 16.98734,-42.66666 2.61913,-7.33333 5.63834,-14.68333 6.70936,-16.33333 2.14356,-3.30236 8.03463,-4.07263 10.70726,-1.4 0.88,0.88 1.6,1.111 1.6,0.51332 0,-0.972 5.04019,1.83332 8.63201,4.8045 0.75239,0.62239 2.75682,2.27454 4.45427,3.67144 5.13921,4.2293 3.73441,12.90154 -5.0882,31.41073 -3.21945,6.75419 -6.41352,14.00663 -7.34021,16.66667 -0.12774,0.36667 -1.22802,2.8974 -2.44506,5.62384 -1.21705,2.72645 -2.21281,5.46989 -2.21281,6.09656 0,0.62665 -1.78756,4.43976 -3.97236,8.47356 -2.1848,4.0338 -4.18976,8.75867 -4.45545,10.49971 -0.26571,1.74104 -1.17815,3.39721 -2.02764,3.68037 -0.84951,0.28317 -1.56363,1.81485 -1.58695,3.40373 -0.0233,1.5889 -0.92333,4.05358 -2,5.47707 -1.07668,1.42349 -1.9576,3.60003 -1.9576,4.83673 0,1.23672 -0.82769,2.9355 -1.83932,3.77507 -1.01161,0.83957 -2.2062,3.36095 -2.65461,5.60304 -0.44843,2.24211 -1.79909,6.27864 -3.00148,8.97011 -6.38165,14.28478 -11.73379,24.94386 -12.72272,25.33798 -0.61336,0.24446 -1.1152,1.50227 -1.1152,2.79516 0,5.54458 -8.59324,17.42707 -12.603,17.42707 -1.13501,0 -2.06367,0.5 -2.06367,1.11111 0,2.18718 -7.93192,1.05429 -14.51085,-2.07254 z m 129.17752,-4.94182 c -4.76667,-0.82655 -11.93712,-3.28644 -15.93432,-5.46644 -7.45474,-4.06567 -24.06568,-19.05658 -24.06568,-21.71859 0,-0.81755 -1.7138,-3.23964 -3.80846,-5.38244 -2.09465,-2.1428 -5.0663,-6.51348 -6.60366,-9.71264 -2.79867,-5.82385 -3.57968,-14.48331 -1.30628,-14.48331 0.66501,0 0.87565,-0.53956 0.46808,-1.19901 -0.40756,-0.65945 1.35702,-3.04112 3.92132,-5.2926 2.69418,-2.36553 4.66233,-5.34123 4.66233,-7.04913 0,-4.13602 4.05313,-20.19408 5.48372,-21.72592 0.65063,-0.69667 1.18295,-2.61126 1.18295,-4.25464 0,-1.64339 0.5225,-3.31091 1.16112,-3.70559 0.63861,-0.39469 1.49608,-2.38011 1.90549,-4.41203 1.56155,-7.75016 11.08597,-22.31679 21.36415,-32.67427 10.13342,-10.2116 22.92237,-19.6868 26.57185,-19.6868 0.98856,0 2.43763,-0.64024 3.22013,-1.42275 0.78251,-0.78251 5.85251,-1.75619 11.26667,-2.16372 8.15109,-0.61356 10.62923,-0.30147 14.41052,1.81479 5.94357,3.3264 9.65096,8.40994 10.27711,14.09193 0.40982,3.71896 -0.2266,5.21045 -3.44814,8.08084 -2.17289,1.93607 -5.62581,3.92057 -7.67314,4.41003 -2.04734,0.48945 -4.40927,1.42822 -5.24875,2.08617 -0.83948,0.65795 -2.03948,1.10416 -2.66667,0.9916 -2.76849,-0.49691 -5.75068,0.24179 -7.37844,1.82768 -0.96905,0.94411 -4.0119,3.09304 -6.7619,4.77541 -2.75,1.68236 -5,3.60991 -5,4.28343 0,0.67352 -0.64286,1.22458 -1.42858,1.22458 -3.55716,0 -20.33296,24.01624 -18.23868,26.11052 0.28532,0.28534 5.87718,-1.72134 12.42635,-4.45926 14.29617,-5.9766 26.22804,-6.85194 31.27119,-2.29406 8.36164,7.55703 10.75042,15.22298 6.23802,20.01868 -2.51302,2.6708 -15.22777,9.95746 -17.37514,9.95746 -0.39576,0 -2.40863,0.6922 -4.47303,1.53821 -2.06441,0.84601 -4.60429,1.70772 -5.64419,1.91491 -1.03989,0.20717 -3.43989,1.52024 -5.33333,2.91792 -1.89344,1.39766 -5.68425,3.27973 -8.42404,4.18236 -2.73979,0.90262 -5.3252,2.19737 -5.74536,2.87721 -0.42016,0.67983 -1.88565,1.23605 -3.25667,1.23605 -1.371,0 -3.53892,1.04619 -4.8176,2.32487 -1.27866,1.27867 -3.57153,2.94639 -5.09524,3.70604 -2.43445,1.21371 -2.77037,2.58893 -2.77037,11.3418 v 9.96063 l 10,-0.1168 c 7.19821,-0.0841 12.98857,-1.14427 20.66667,-3.78396 14.11648,-4.85316 23.39448,-5.8476 26.41125,-2.83083 1.24048,1.24047 2.25541,1.79435 2.25541,1.23084 0,-0.56352 1.76578,1.37649 3.92394,4.31115 4.53904,6.17213 4.73778,13.79938 0.46336,17.78162 -3.4413,3.20606 -17.8304,8.03124 -26.19108,8.78282 -3.77459,0.3393 -8.06288,0.82868 -9.52955,1.08749 -1.46667,0.2588 -6.56667,-0.20571 -11.33333,-1.03224 z m 83.99999,-8.39775 c -9.63922,-1.28843 -13.02259,-3.59175 -15.97501,-10.87547 -1.64296,-4.05321 -1.95518,-13.98505 -0.68801,-21.88554 1.04391,-6.50852 3.34387,-27.48079 3.94641,-35.98556 0.74575,-10.52598 4.6324,-41.07082 5.37992,-42.28032 0.28028,-0.45351 0.84339,-3.60514 1.25133,-7.00361 1.25247,-10.43379 2.1334,-16.03167 3.72466,-23.6685 0.8404,-4.03333 1.58662,-7.63333 1.65828,-8 0.5929,-3.0345 4.02629,-6.6349 7.47289,-7.8364 3.55007,-1.23756 5.22637,-0.94578 11.4316,1.98976 14.05093,6.64715 25.35643,21.33382 34.33605,44.605 2.10282,5.44957 4.64198,11.79899 5.64259,14.10981 1.00061,2.31083 1.86379,5.01083 1.91817,6 0.11014,2.0033 4.92246,12.84986 5.23466,11.7985 0.10893,-0.36667 0.45501,-2.16667 0.7692,-4 0.87764,-5.12131 8.61688,-38.82167 9.95142,-43.33333 0.65078,-2.2 1.45756,-5.5 1.79287,-7.33334 0.33532,-1.83333 2.19435,-9.63333 4.13117,-17.33333 1.93684,-7.7 3.65096,-14.6 3.80916,-15.33333 0.15819,-0.73334 0.6502,-1.93334 1.09334,-2.66667 0.44314,-0.73333 1.20506,-3.19735 1.69314,-5.4756 0.90898,-4.24273 5.17099,-7.50831 8.7595,-6.71155 4.13492,0.9181 8.73842,3.35923 10.80952,5.73208 1.1785,1.3503 3.4285,3.4992 5,4.77535 2.0239,1.64359 2.9184,3.97676 3.0672,8 0.2789,7.54148 0.4476,6.50604 -3.5317,21.67972 -1.9231,7.33333 -3.791,14.77616 -4.1509,16.5396 -0.3599,1.76345 -1.2745,4.36484 -2.0323,5.78087 -0.7578,1.41602 -1.0841,2.86835 -0.725,3.22742 0.359,0.35905 0.061,2.55767 -0.6627,4.8858 -0.7235,2.32813 -1.4921,5.43297 -1.708,6.89964 -0.2158,1.46667 -0.5456,2.66667 -0.7328,2.66667 -0.3323,0 -0.6848,1.8324 -1.67827,8.72306 -0.26879,1.86436 -0.93655,4.11436 -1.48391,5 -0.54734,0.88566 -0.70166,1.61027 -0.3429,1.61027 0.35874,0 0.0781,1.95 -0.62352,4.33333 -0.70168,2.38334 -1.60395,7.00528 -2.00504,10.27098 -0.40108,3.2657 -1.22592,6.8657 -1.83298,8 -0.60705,1.1343 -1.1021,2.5214 -1.10012,3.08246 0.0399,11.2223 -7.66456,38.6792 -10.68356,38.07367 -0.504,-0.10107 -1.81636,0.15811 -2.91636,0.576 -6.84846,2.60172 -15.38949,1.37303 -17.73292,-2.55101 -0.58644,-0.98199 -1.8567,-1.78543 -2.82281,-1.78543 -2.83901,0 -18.56509,-26.03749 -19.91016,-32.96504 -0.44465,-2.29011 -1.49015,-5.17151 -5.45535,-15.03496 -1.03181,-2.56667 -3.51644,-9.01667 -5.52137,-14.33333 -2.00495,-5.31667 -4.15056,-9.66667 -4.76804,-9.66667 -0.61747,0 -1.01121,0.45 -0.87497,1 0.21589,0.87155 -0.5924,8.36063 -2.4104,22.33333 -0.28626,2.2 -0.84748,7.9 -1.24719,12.66667 -0.39969,4.76667 -1.07644,12.26667 -1.50388,16.66667 -0.42744,4.4 -0.98759,10.4 -1.24477,13.33333 -0.45014,5.13397 -1.04079,9.89845 -2.34019,18.8772 -0.33513,2.31579 -1.20691,5.31579 -1.93728,6.66667 -1.86871,3.45634 -8.28053,6.68313 -12.23067,6.15513 z"
       id="path216" />
  </g>
</svg>
